<?xml version="1.0" standalone="no"?>
<!DOCTYPE svg PUBLIC "-//W3C//DTD SVG 20010904//EN"
 "http://www.w3.org/TR/2001/REC-SVG-20010904/DTD/svg10.dtd">
<svg version="1.0" xmlns="http://www.w3.org/2000/svg"
 width="1000.000000pt" height="1000.000000pt" viewBox="0 0 1000.000000 1000.000000"
 preserveAspectRatio="xMidYMid meet">
<metadata>
Created by potrace 1.14, written by Peter Selinger 2001-2017
</metadata>
<g transform="translate(0.000000,1000.000000) scale(0.100000,-0.100000)"
fill="#000000" stroke="none">
<path d="M3400 9183 c-63 -7 -160 -44 -208 -81 -26 -19 -577 -565 -1224 -1213
-1231 -1232 -1207 -1205 -1243 -1327 -13 -43 -15 -193 -2 -238 3 -12 18 -48
33 -80 23 -52 104 -136 666 -700 l640 -642 -166 -167 c-92 -92 -177 -183 -190
-203 -63 -103 -84 -226 -56 -344 32 -138 -59 -40 1619 -1719 856 -856 1574
-1567 1596 -1581 140 -87 302 -95 450 -23 66 33 156 121 1632 1597 1484 1485
1564 1566 1591 1628 88 195 55 373 -101 536 l-70 75 424 427 c442 445 456 461
487 575 11 40 10 182 -2 231 -26 110 12 69 -1455 1539 -768 769 -1415 1410
-1438 1423 -104 62 -263 86 -358 53 -22 -7 -42 -13 -45 -14 -3 0 -26 -11 -53
-24 -35 -17 -171 -147 -533 -508 l-486 -486 -596 596 c-623 621 -630 627 -742
655 -54 13 -122 19 -170 15z"/>
</g>
</svg>
